<svg width="2500" height="733" viewBox="0 0 2500 733" fill="none" xmlns="http://www.w3.org/2000/svg">
<path d="M339.693 585.655L278.822 480.344L132.679 733H257.805L341.356 588.52L339.693 585.655Z" fill="#FFC107"/>
<path d="M212.966 366.5L278.819 480.344L132.682 733H0.968018L212.966 366.5Z" fill="#0F9D58"/>
<path opacity="0.2" d="M257.805 727.274H136.001L132.679 733H257.805L341.356 588.52L339.693 585.655L257.805 727.274Z" fill="#BF360C"/>
<path opacity="0.2" d="M4.28997 727.274L0.968018 733H132.679L136.001 727.274H4.28997Z" fill="#263238"/>
<path opacity="0.2" d="M0.968018 733H4.28997L214.623 369.365L212.963 366.5L0.968018 733Z" fill="white"/>
<path d="M341.356 588.52L278.822 480.344L263.473 506.858L341.356 588.52Z" fill="url(#paint0_radial_3_34)"/>
<path d="M263.473 506.858L278.822 480.344L212.966 366.5L181.526 420.903L263.473 506.858Z" fill="url(#paint1_radial_3_34)"/>
<path d="M132.679 0H0.968018L341.356 588.52L407.153 474.732L407.211 474.617L132.679 0Z" fill="#4285F4"/>
<path d="M449.872 400.86C455.921 390.419 459.106 378.567 459.106 366.5C459.106 354.433 455.921 342.581 449.872 332.14L257.805 0H132.679L407.211 474.617L449.872 400.86Z" fill="#DB4437"/>
<path opacity="0.2" d="M407.211 474.617L405.549 471.812L341.356 582.794L4.28997 0H0.968018L341.356 588.52L407.153 474.732L407.211 474.617Z" fill="#1A237E"/>
<path opacity="0.2" d="M257.805 5.7262L449.872 337.866C455.542 347.659 458.463 358.484 458.92 369.365C459.436 356.537 456.516 343.592 449.872 332.14L257.805 0H0.968018L4.28997 5.7262H257.805Z" fill="white"/>
<path opacity="0.2" d="M407.211 474.617L449.872 400.86C456.516 389.408 459.436 376.466 458.92 363.635C458.463 374.516 455.542 385.341 449.872 395.134L405.549 471.812L407.211 474.617Z" fill="#3E2723"/>
<path d="M449.872 332.14L257.805 0H0.968018L212.966 366.5L0.968018 733H257.805L449.872 400.86C455.921 390.419 459.106 378.567 459.106 366.5C459.106 354.433 455.921 342.581 449.872 332.14Z" fill="url(#paint2_radial_3_34)"/>
<path fill-rule="evenodd" clip-rule="evenodd" d="M1042.67 318.028H1323.38C1324.99 324.426 1326.32 332.157 1327.38 341.22C1328.45 350.283 1328.99 359.349 1328.99 368.415C1328.99 405.202 1323.38 439.859 1312.19 472.383C1300.99 504.905 1283.4 533.961 1259.41 559.552C1233.81 586.746 1203.16 607.807 1167.43 622.736C1131.71 637.663 1090.92 645.128 1045.07 645.128C1003.48 645.128 964.294 637.663 927.506 622.736C890.719 607.809 858.728 587.013 831.536 560.355C804.345 533.697 782.751 502.105 766.757 465.584C750.763 429.06 742.764 389.205 742.764 346.02C742.764 302.835 750.763 262.98 766.757 226.456C782.751 189.935 804.345 158.346 831.536 131.685C858.728 105.024 890.719 84.2334 927.506 69.3037C964.297 54.3769 1003.48 46.912 1045.07 46.912C1091.45 46.912 1132.91 54.9105 1169.43 70.9045C1205.96 86.8986 1237.28 109.026 1263.4 137.285L1189.03 210.063C1170.37 190.334 1149.57 175.272 1126.64 164.875C1103.72 154.478 1076.26 149.28 1044.27 149.28C1018.15 149.28 993.353 153.945 969.894 163.277C946.435 172.61 925.908 185.804 908.314 202.865C890.719 219.926 876.724 240.585 866.327 264.848C855.93 289.11 850.729 316.163 850.729 346.02C850.729 375.877 855.93 402.936 866.327 427.195C876.724 451.455 890.85 472.114 908.712 489.178C926.574 506.236 947.236 519.436 970.695 528.763C994.154 538.089 1019.21 542.76 1045.87 542.76C1076.26 542.76 1101.99 538.362 1123.05 529.566C1144.11 520.767 1162.1 509.438 1177.03 495.575C1187.69 485.976 1196.89 473.849 1204.62 459.186C1212.35 444.523 1218.35 428.128 1222.62 409.999H1042.67V318.028ZM1389.23 59.7072H1582.78C1628.1 59.7072 1668.88 66.6385 1705.14 80.501C1741.39 94.3635 1772.32 113.958 1797.91 139.285C1823.5 164.611 1843.1 194.867 1856.7 230.056C1870.29 265.246 1877.09 303.899 1877.09 346.02C1877.09 388.675 1870.29 427.594 1856.69 462.784C1843.1 497.974 1823.5 528.097 1797.91 553.157C1772.32 578.217 1741.39 597.676 1705.14 611.539C1668.88 625.401 1628.1 632.333 1582.78 632.333H1389.23V59.7072ZM1577.98 529.965C1609.44 529.965 1637.16 525.567 1661.15 516.768C1685.14 507.969 1705.14 495.575 1721.13 479.578C1737.13 463.584 1749.13 444.257 1757.12 421.598C1765.12 398.937 1769.12 373.745 1769.12 346.02C1769.12 318.295 1765.12 293.103 1757.12 270.445C1749.13 247.783 1737.13 228.458 1721.13 212.461C1705.14 196.465 1685.15 184.071 1661.15 175.272C1637.16 166.473 1609.44 162.078 1577.98 162.078H1497.2V529.965H1577.98ZM2212.72 318.028H2493.43C2495.03 324.426 2496.37 332.157 2497.43 341.22C2498.5 350.283 2499.03 359.349 2499.03 368.415C2499.03 405.202 2493.43 439.859 2482.24 472.383C2471.04 504.905 2453.45 533.961 2429.45 559.552C2403.86 586.746 2373.21 607.807 2337.48 622.736C2301.76 637.663 2260.97 645.128 2215.12 645.128C2173.53 645.128 2134.34 637.663 2097.56 622.736C2060.77 607.809 2028.78 587.013 2001.59 560.355C1974.39 533.697 1952.8 502.105 1936.8 465.584C1920.81 429.06 1912.81 389.205 1912.81 346.02C1912.81 302.835 1920.81 262.98 1936.8 226.456C1952.8 189.935 1974.39 158.346 2001.59 131.685C2028.78 105.024 2060.77 84.2334 2097.56 69.3037C2134.34 54.3769 2173.53 46.912 2215.12 46.912C2261.5 46.912 2302.96 54.9105 2339.48 70.9045C2376 86.8986 2407.33 109.026 2433.45 137.285L2359.08 210.063C2340.41 190.334 2319.62 175.272 2296.69 164.875C2273.77 154.478 2246.31 149.28 2214.32 149.28C2188.2 149.28 2163.4 153.945 2139.94 163.277C2116.48 172.61 2095.96 185.804 2078.36 202.865C2060.77 219.926 2046.77 240.585 2036.37 264.848C2025.98 289.11 2020.78 316.163 2020.78 346.02C2020.78 375.877 2025.98 402.936 2036.37 427.195C2046.77 451.455 2060.9 472.114 2078.76 489.178C2096.62 506.236 2117.28 519.436 2140.74 528.763C2164.21 538.089 2189.26 542.76 2215.92 542.76C2246.31 542.76 2272.03 538.362 2293.09 529.566C2314.15 520.767 2332.15 509.438 2347.08 495.575C2357.74 485.976 2366.94 473.849 2374.67 459.186C2382.4 444.523 2388.4 428.128 2392.66 409.999H2212.72V318.028Z" fill="white"/>
<defs>
<radialGradient id="paint0_radial_3_34" cx="0" cy="0" r="1" gradientUnits="userSpaceOnUse" gradientTransform="translate(65823.9 19409.2) scale(215970 215969)">
<stop stop-color="#BF360C" stop-opacity="0.2"/>
<stop offset="1" stop-color="#BF360C" stop-opacity="0.02"/>
</radialGradient>
<radialGradient id="paint1_radial_3_34" cx="0" cy="0" r="1" gradientUnits="userSpaceOnUse" gradientTransform="translate(134947 38615.6) scale(217720 217718)">
<stop stop-color="#263238" stop-opacity="0.2"/>
<stop offset="1" stop-color="#263238" stop-opacity="0.02"/>
</radialGradient>
<radialGradient id="paint2_radial_3_34" cx="0" cy="0" r="1" gradientUnits="userSpaceOnUse" gradientTransform="translate(-4878.24 894.523) scale(655495 655497)">
<stop stop-color="white" stop-opacity="0.1"/>
<stop offset="1" stop-color="white" stop-opacity="0"/>
</radialGradient>
</defs>
</svg>
