<svg width="745" height="516" viewBox="0 0 745 516" fill="none" xmlns="http://www.w3.org/2000/svg">
<path fill-rule="evenodd" clip-rule="evenodd" d="M417.91 219.813C409.201 225.968 397.755 226.894 388.887 222.893C388.887 222.893 386.469 221.97 384.213 219.508C382.272 217.192 333.254 164.399 333.254 164.399L333.095 164.243C348.255 166.861 364.864 159.936 373.409 147.313C381.95 135.306 381.634 118.22 373.571 106.212C363.898 93.1302 345.028 88.8215 329.226 90.8195C301.815 94.5151 282.143 117.758 276.021 142.084C269.726 169.785 274.246 195.954 284.087 220.583C286.338 225.82 289.403 231.205 293.114 235.817C264.246 223.817 238.769 201.65 225.389 171.939C210.554 139.922 210.877 99.4417 228.454 66.9631C242.318 41.8732 266.825 18.6299 297.142 8.77656C328.903 -3.69021 371.635 -1.07425 402.597 15.5498C440.163 33.4048 468.542 77.896 468.703 117.607C469.994 158.705 450.96 195.954 417.91 219.813Z" fill="#BFA161"/>
<path fill-rule="evenodd" clip-rule="evenodd" d="M312.458 235.363C298.432 220.888 287.142 202.112 295.692 182.564C303.265 167.633 310.038 152.391 313.264 135.149C314.555 153.163 326.007 169.172 331.482 186.414C333.579 194.723 333.743 203.346 330.358 211.963C326.65 221.352 320.681 229.354 313.585 236.589L312.458 235.363Z" fill="#BFA161"/>
<path fill-rule="evenodd" clip-rule="evenodd" d="M135.538 398.021H98.1972C89.9249 385.631 82.4518 374.927 75.7381 365.91C68.7139 356.442 61.4705 347.139 54.0137 338.008H39.8344V380.027C39.8344 382.194 40.2018 384.103 40.9041 385.761C41.6041 387.381 43.1379 388.662 45.5081 389.518C46.6747 389.965 48.7148 390.377 51.6485 390.729C54.5846 391.112 57.0566 391.335 59.0918 391.397V398.024H0.421265V391.397C1.98985 391.265 4.2633 391.05 7.2317 390.729C10.2001 390.444 12.27 390.027 13.4365 389.518C15.3774 388.719 16.807 387.543 17.6757 385.984C18.5717 384.42 19.011 382.447 19.011 380.027V284.259C19.011 282.06 18.6784 280.152 18.0058 278.464C17.3779 276.774 15.8391 275.498 13.439 274.637C11.8034 274.066 9.67145 273.56 7.06541 273.108C4.86852 272.69 2.65053 272.392 0.421265 272.214L0.421265 265.59H64.4627C70.335 265.59 75.8374 266.168 80.98 267.313C86.1126 268.459 90.7911 270.306 94.9657 272.852C98.9348 275.27 102.255 278.618 104.64 282.606C107.048 286.62 108.276 291.459 108.276 297.133C108.276 302.231 107.445 306.755 105.807 310.667C104.193 314.55 101.73 318.023 98.5993 320.831C95.6631 323.504 92.1214 325.837 88.0212 327.778C83.9186 329.753 79.3767 331.411 74.4426 332.776C80.1763 340.023 85.8601 347.309 91.4935 354.635C96.0305 360.524 101.565 367.724 108.172 376.165C111.044 379.925 113.613 382.663 115.955 384.448C118.256 386.2 120.554 387.672 122.828 388.781C124.528 389.58 126.628 390.218 129.197 390.66C131.733 391.077 133.838 391.332 135.538 391.395V398.021ZM84.1172 299.265C84.1172 291.238 81.7097 284.9 76.8773 280.186C72.0698 275.5 65.2271 273.148 56.451 273.148H39.8344V329.977H52.6512C61.6258 329.977 69.1387 327.239 75.1028 321.724C81.1165 316.217 84.1196 308.726 84.1196 299.263L84.1172 299.265ZM224.004 376.361C219.968 383.723 214.558 389.553 207.792 393.916C201.011 398.277 193.206 400.444 184.427 400.444C176.649 400.444 169.878 399.136 164.041 396.525C158.198 393.916 153.391 390.377 149.625 385.887C145.853 381.422 143.014 376.168 141.15 370.211C139.308 364.222 138.382 357.916 138.382 351.257C138.382 345.3 139.38 339.44 141.346 333.67C143.294 327.993 146.27 322.724 150.127 318.125C153.83 313.727 158.431 310.158 163.939 307.453C169.444 304.743 175.621 303.383 182.464 303.383C189.5 303.383 195.539 304.427 200.547 306.564C205.586 308.662 209.661 311.563 212.766 315.226C215.762 318.733 217.995 322.841 219.467 327.557C220.936 332.302 221.671 337.435 221.671 342.945V349.125H157.836C157.836 355.143 158.431 360.626 159.63 365.525C160.829 370.464 162.737 374.766 165.371 378.531C167.91 382.127 171.213 384.961 175.321 387.066C179.424 389.133 184.33 390.188 190.004 390.188C195.804 390.188 200.815 388.878 205.012 386.302C209.192 383.72 213.257 379.069 217.164 372.343L224.004 376.361ZM202.416 341.284C202.416 337.785 202.118 334.057 201.481 330.071C200.845 326.092 199.875 322.779 198.512 320.103C197.053 317.298 194.932 314.892 192.332 313.092C189.738 311.28 186.363 310.387 182.26 310.387C175.418 310.387 169.746 313.092 165.205 318.54C160.67 323.988 158.23 331.57 157.833 341.284H202.416ZM278.5 398.021H233.105V392.089C234.555 391.963 236.101 391.812 237.747 391.658C239.119 391.569 240.48 391.343 241.807 390.983C243.577 390.459 244.895 389.501 245.766 388.153C246.634 386.798 247.118 385.041 247.089 382.891L245.607 284.614C245.594 283.502 245.086 280.296 244.473 278.087C244.195 277.084 243.894 276.28 243.609 275.97C243.309 275.639 243.207 275.304 242.785 274.945C241.154 273.552 243.18 275.486 241.656 274.192C240.65 273.336 242.07 273.87 239.055 273.274C236.064 272.686 231.055 274.006 229.219 273.885L229.055 267.407L262.908 265.645L264.517 266.96L264.648 381.814C264.648 383.907 265.05 385.622 265.872 386.979C266.688 388.324 268.001 389.382 269.836 390.087C271.15 390.672 272.519 391.125 273.923 391.439C275.281 391.749 276.822 391.96 278.5 392.089V398.021ZM336.835 398.021H290.614V391.923L295.208 391.546C296.802 391.422 298.154 391.174 299.314 390.786C301.138 390.253 302.495 389.272 303.352 387.883C304.21 386.493 304.679 384.691 304.679 382.479V326.125C304.679 324.139 304.181 322.335 303.252 320.689C302.324 319.051 301.001 317.691 299.314 316.586C298.092 315.829 296.335 315.197 293.99 314.693C291.89 314.193 289.754 313.864 287.601 313.71V307.711L321.356 305.656L322.708 306.954V381.375C322.708 383.527 323.138 385.321 323.999 386.746C324.86 388.136 326.252 389.203 328.136 389.873C329.556 390.444 330.951 390.883 332.306 391.228C333.795 391.581 335.309 391.814 336.835 391.923V398.021ZM324.627 269.68C324.627 273.185 323.436 276.248 320.988 278.871C318.571 281.489 315.595 282.817 312.019 282.817C308.742 282.817 305.863 281.556 303.448 279.06C301.036 276.565 299.807 273.686 299.807 270.497C299.807 267.087 301.036 264.148 303.448 261.621C305.866 259.095 308.745 257.832 312.019 257.832C315.729 257.832 318.737 258.998 321.085 261.373C323.436 263.768 324.627 266.518 324.627 269.68ZM439.945 396.334C436.875 397.383 434.204 398.245 431.904 398.915C429.571 399.553 426.965 399.9 424.031 399.9C418.923 399.9 414.887 398.753 411.847 396.495C408.812 394.202 406.878 390.886 406.039 386.555H405.444C401.205 391.012 396.665 394.452 391.793 396.813C386.951 399.168 381.111 400.349 374.273 400.349C367.033 400.349 361.091 398.242 356.42 394.01C351.747 389.771 349.411 384.232 349.411 377.411C349.411 373.845 349.948 370.69 350.98 367.888C352.039 365.078 353.637 362.502 355.686 360.306C357.321 358.457 359.453 356.801 362.126 355.332C364.552 353.982 367.073 352.81 369.669 351.827C372.603 350.783 378.544 348.804 387.489 345.935C396.469 343.066 402.505 340.842 405.642 339.217V329.977C405.642 329.18 405.476 327.619 405.106 325.328C404.742 323.029 403.962 320.815 402.805 318.795C401.502 316.472 399.663 314.464 397.263 312.777C394.898 311.049 391.525 310.195 387.154 310.195C384.151 310.195 381.381 310.67 378.81 311.66C376.241 312.618 374.407 313.63 373.375 314.688C373.375 315.929 373.672 317.741 374.313 320.195C374.936 322.615 375.241 324.846 375.241 326.921C375.241 329.083 374.206 331.061 372.171 332.875C370.103 334.695 367.267 335.586 363.593 335.586C360.357 335.586 357.957 334.469 356.42 332.272C354.882 330.071 354.12 327.586 354.12 324.846C354.12 321.977 355.187 319.242 357.289 316.629C359.426 314.02 362.159 311.69 365.569 309.652C368.5 307.9 372.034 306.435 376.206 305.192C380.376 303.981 384.451 303.38 388.425 303.38C393.895 303.38 398.668 303.762 402.776 304.457C406.769 305.143 410.555 306.723 413.85 309.081C417.188 311.372 419.69 314.492 421.427 318.44C423.16 322.399 424.033 327.495 424.033 333.704C424.033 342.622 423.929 350.497 423.726 357.372C423.53 364.257 423.43 371.772 423.43 379.928C423.43 382.35 423.86 384.261 424.763 385.691C425.632 387.131 426.997 388.339 428.801 389.357C429.801 389.898 431.34 390.221 433.437 390.283C435.572 390.342 437.744 390.377 439.945 390.377V396.334ZM405.843 347.052C400.301 348.611 395.429 350.14 391.257 351.636C387.087 353.138 383.215 354.982 379.646 357.246C376.373 359.353 373.804 361.867 371.9 364.761C370.031 367.632 369.063 371.072 369.063 375.053C369.063 380.216 370.503 384.036 373.337 386.455C376.179 388.878 379.78 390.092 384.114 390.092C388.755 390.092 392.826 389.007 396.362 386.875C399.872 384.74 402.838 382.194 405.238 379.26L405.843 347.052ZM555.976 398.021H508.759V391.876C510.258 391.752 511.924 391.623 513.693 391.496C515.5 391.367 516.962 391.114 518.168 390.732C519.968 390.191 521.335 389.2 522.206 387.803C523.102 386.398 523.542 384.584 523.542 382.353V335.015C523.542 328.482 521.906 323.452 518.697 319.912C515.463 316.376 511.524 314.593 506.92 314.593C503.453 314.593 500.283 315.102 497.407 316.12C494.575 317.14 492.004 318.413 489.802 319.912C487.665 321.344 485.93 322.876 484.66 324.534C483.394 326.189 482.463 327.497 481.895 328.48V381.425C481.895 383.529 482.324 385.284 483.265 386.654C484.168 388.019 485.528 389.074 487.367 389.806C488.784 390.45 490.273 390.922 491.803 391.211C493.406 391.524 495.042 391.752 496.744 391.876V398.024H449.523V391.876C451.022 391.752 452.561 391.623 454.159 391.496C455.574 391.401 456.972 391.144 458.329 390.732C460.136 390.191 461.501 389.2 462.374 387.803C463.278 386.398 463.71 384.584 463.71 382.353V325.516C463.71 323.382 463.238 321.439 462.27 319.689C461.347 317.925 459.992 316.424 458.331 315.326C457.098 314.593 455.626 314.052 453.926 313.7C452.12 313.343 450.291 313.109 448.453 313V306.949L480.52 304.879L481.895 306.182V319.148H482.359C483.927 317.683 485.898 315.867 488.229 313.797C490.569 311.724 492.808 310.004 494.875 308.704C497.313 307.205 500.182 305.959 503.483 304.969C506.823 303.983 510.559 303.474 514.733 303.474C523.974 303.474 530.846 306.244 535.318 311.724C539.791 317.239 541.987 324.566 541.987 333.704V381.588C541.987 383.782 542.397 385.54 543.199 386.877C543.963 388.218 545.296 389.265 547.2 390C548.763 390.635 550.101 391.052 551.238 391.3C552.374 391.553 553.975 391.752 555.978 391.876L555.976 398.021ZM612.405 400.444C598.456 400.444 587.543 396.016 579.638 387.19C571.758 378.369 567.824 366.516 567.824 351.636C567.824 345.173 568.892 339.122 570.994 333.481C573.128 327.848 576.26 322.647 580.239 318.125C584.074 313.727 588.911 310.158 594.719 307.453C600.494 304.743 606.831 303.383 613.671 303.383C623.117 303.383 630.828 305.544 636.733 309.875C642.677 314.206 645.643 320.101 645.643 327.557C645.643 330.676 644.874 333.414 643.305 335.809C641.739 338.224 639.163 339.408 635.561 339.408C631.724 339.408 628.756 338.48 626.622 336.601C624.517 334.757 623.452 332.655 623.452 330.356C623.452 327.557 623.852 324.688 624.619 321.724C625.42 318.766 625.852 316.601 625.984 315.226C624.82 313.315 623.085 312.012 620.752 311.372C618.449 310.702 615.944 310.384 613.269 310.384C610.188 310.379 607.141 311.03 604.331 312.295C601.494 313.571 598.757 315.931 596.086 319.336C593.654 322.461 591.718 326.666 590.211 331.95C588.717 337.241 587.943 343.545 587.943 350.877C587.943 362.468 590.646 371.899 596.022 379.226C601.39 386.525 608.471 390.188 617.178 390.188C623.517 390.188 628.821 388.719 633.099 385.793C637.336 382.859 641.3 378.491 644.946 372.631L651.215 376.553C646.911 383.909 641.238 389.712 634.199 394.01C627.153 398.312 619.881 400.444 612.407 400.444H612.405ZM744.382 376.361C740.349 383.723 734.943 389.553 728.17 393.916C721.394 398.277 713.586 400.444 704.812 400.444C697.034 400.444 690.261 399.136 684.421 396.525C678.578 393.916 673.773 390.377 670.001 385.887C666.236 381.422 663.399 376.168 661.528 370.211C659.693 364.222 658.753 357.916 658.753 351.257C658.753 345.3 659.755 339.44 661.729 333.67C663.676 327.995 666.65 322.726 670.502 318.125C674.21 313.727 678.809 310.158 684.319 307.453C689.827 304.743 696.002 303.383 702.839 303.383C709.883 303.383 715.919 304.427 720.923 306.564C725.966 308.662 730.039 311.563 733.139 315.226C736.142 318.733 738.376 322.841 739.845 327.557C741.317 332.302 742.049 337.435 742.049 342.945V349.125H678.209C678.209 355.143 678.809 360.626 680.013 365.525C681.212 370.464 683.12 374.766 685.756 378.531C688.295 382.127 691.596 384.961 695.694 387.066C699.799 389.133 704.708 390.188 710.379 390.188C716.192 390.188 721.193 388.878 725.4 386.302C729.567 383.72 733.643 379.069 737.547 372.343L744.382 376.361ZM722.794 341.284C722.794 337.785 722.496 334.057 721.861 330.071C721.223 326.092 720.258 322.779 718.895 320.103C717.435 317.301 715.317 314.895 712.722 313.092C710.114 311.28 706.748 310.387 702.641 310.387C695.796 310.387 690.127 313.092 685.587 318.54C681.045 323.988 678.613 331.57 678.209 341.284H722.794Z" fill="white"/>
<path d="M27.6183 514.707H0.458496V511.977C1.2279 511.915 2.3274 511.843 3.77933 511.739C5.22878 511.644 6.24389 511.491 6.83708 511.28C7.76284 510.952 8.44289 510.493 8.88219 509.915C9.30164 509.339 9.50764 508.535 9.50764 507.512V467.967C9.50764 467.079 9.36121 466.322 9.04104 465.724C8.73576 465.118 7.99614 464.617 6.83708 464.2C5.98081 463.897 4.92598 463.609 3.63538 463.333C2.5878 463.107 1.52661 462.948 0.458496 462.859V460.129H27.6183V462.859C26.7323 462.884 25.6899 462.981 24.4663 463.15C23.2501 463.306 22.1903 463.532 21.277 463.783C20.2073 464.095 19.4801 464.592 19.1202 465.277C18.7429 465.972 18.5692 466.749 18.5692 467.585V507.093C18.5692 507.929 18.7677 508.681 19.1773 509.339C19.5818 509.994 20.2941 510.518 21.277 510.897C21.8727 511.111 22.8456 511.329 24.1957 511.57C25.531 511.818 26.6702 511.947 27.6208 511.975L27.6183 514.707ZM82.4121 514.707H61.9013V512.171C62.5541 512.123 63.2763 512.064 64.0457 512.012C64.83 511.962 65.4679 511.855 65.9866 511.699C66.7759 511.476 67.3666 511.071 67.7438 510.493C68.136 509.917 68.3271 509.165 68.3271 508.249V488.734C68.3271 486.043 67.6148 483.973 66.2249 482.516C64.8151 481.057 63.1076 480.322 61.1071 480.322C59.5931 480.322 58.2157 480.531 56.9722 480.953C55.7387 481.37 54.6218 481.896 53.6638 482.516C52.7405 483.107 51.9835 483.735 51.4375 484.42C51.0016 484.935 50.5995 485.477 50.2338 486.043V507.864C50.2338 508.733 50.4174 509.458 50.8245 510.024C51.2141 510.587 51.8098 511.016 52.6065 511.319C53.2021 511.58 53.8375 511.766 54.5349 511.898C55.2349 512.024 55.9422 512.121 56.6843 512.171V514.71H36.1686V512.171C36.8189 512.123 37.484 512.064 38.1815 512.012C38.8764 511.962 39.4721 511.855 39.9933 511.699C40.7776 511.476 41.3757 511.071 41.7455 510.493C42.1426 509.917 42.3288 509.165 42.3288 508.249V484.825C42.3288 483.943 42.1253 483.142 41.7033 482.42C41.2958 481.687 40.7081 481.07 39.9958 480.628C39.4597 480.322 38.8218 480.097 38.0797 479.955C37.3376 479.814 36.5409 479.717 35.7045 479.665V477.168L49.6356 476.319L50.2313 476.855V482.199H50.4298C51.1124 481.596 51.9686 480.846 52.9862 479.995C54.0013 479.138 54.9693 478.431 55.8702 477.893C57.0481 477.225 58.3056 476.709 59.613 476.356C61.2057 475.931 62.849 475.724 64.4974 475.743C68.5107 475.743 71.5015 476.885 73.4399 479.138C75.3857 481.412 76.3437 484.435 76.3437 488.198V507.929C76.3437 508.84 76.5175 509.56 76.8649 510.111C77.2 510.664 77.7783 511.098 78.6023 511.396C79.2848 511.662 79.8631 511.828 80.3595 511.935C80.8509 512.042 81.5484 512.121 82.4121 512.171V514.707ZM135.538 514.012L120.927 514.861L120.286 514.322V510.778L119.951 510.706C118.472 512.205 116.663 513.412 114.486 514.37C112.327 515.32 110.093 515.792 107.8 515.792C105.425 515.789 103.075 515.296 100.9 514.342C98.7069 513.405 96.7319 512.023 95.0997 510.284C93.3779 508.433 92.0295 506.268 91.1286 503.906C90.1557 501.414 89.6643 498.669 89.6643 495.673C89.6529 492.992 90.1848 490.335 91.2279 487.865C92.2515 485.455 93.7237 483.262 95.5663 481.402C97.2913 479.682 99.4059 478.317 101.918 477.282C104.349 476.273 106.955 475.751 109.587 475.748C111.543 475.748 113.456 475.972 115.345 476.418C117.226 476.875 118.849 477.438 120.2 478.136V464.944C120.2 463.862 120.008 462.877 119.604 462.001C119.268 461.176 118.692 460.471 117.951 459.978C117.157 459.491 116.094 459.141 114.747 458.913C113.304 458.694 111.852 458.537 110.396 458.442V456.054L127.509 455.175L128.142 455.751V506.899C128.142 507.805 128.33 508.567 128.725 509.197C129.097 509.818 129.666 510.354 130.405 510.786C130.941 511.106 131.711 511.285 132.738 511.361C133.756 511.436 134.682 511.495 135.538 511.523V514.02V514.012ZM120.2 507.351V485.167C119.928 484.405 119.558 483.681 119.098 483.015C118.566 482.22 117.92 481.506 117.182 480.898C116.307 480.22 115.334 479.681 114.295 479.3C113.196 478.88 111.905 478.669 110.441 478.669C108.731 478.669 107.164 479.062 105.745 479.861C104.31 480.647 103.049 481.797 101.947 483.281C100.885 484.72 100.061 486.545 99.4506 488.761C98.845 490.982 98.5372 493.434 98.5372 496.13C98.5372 498.282 98.773 500.24 99.2197 502C99.6665 503.759 100.436 505.39 101.511 506.894C102.497 508.33 103.802 509.516 105.325 510.361C106.859 511.227 108.686 511.677 110.82 511.677C113.079 511.677 114.965 511.218 116.444 510.319C117.829 509.511 119.093 508.511 120.2 507.351ZM186.616 514.012L172.968 514.861L172.335 514.322V509.507H172.087C171.407 510.153 170.64 510.843 169.779 511.57C168.882 512.34 167.902 513.006 166.855 513.555C165.681 514.205 164.442 514.732 163.159 515.127C161.963 515.491 160.283 515.663 158.111 515.663C154.396 515.663 151.574 514.576 149.63 512.386C147.702 510.187 146.727 507.001 146.727 502.824V484.666C146.727 483.745 146.528 482.973 146.148 482.345C145.727 481.671 145.151 481.108 144.468 480.702C143.877 480.374 143.235 480.149 142.569 480.037C141.769 479.89 140.96 479.792 140.147 479.744V477.237L154.11 476.319L154.751 476.855V503.203C154.751 505.953 155.428 508.011 156.791 509.403C158.156 510.778 159.779 511.476 161.68 511.476C163.226 511.476 164.621 511.252 165.835 510.815C167.051 510.389 168.071 509.875 168.895 509.284C169.665 508.748 170.33 508.17 170.913 507.579C171.496 506.973 171.943 506.407 172.246 505.899V484.395C172.246 483.551 172.062 482.804 171.65 482.149C171.24 481.471 170.675 480.899 170.002 480.481C169.493 480.163 168.741 479.98 167.724 479.915C166.598 479.847 165.472 479.79 164.346 479.742V477.235L179.555 476.319L180.193 476.855V506.973C180.193 507.852 180.399 508.587 180.786 509.207C181.188 509.823 181.747 510.349 182.452 510.778C182.963 511.071 183.568 511.25 184.266 511.347C184.978 511.419 185.757 511.491 186.614 511.515L186.616 514.012ZM221.497 496.13C222.654 497.048 223.557 498.11 224.18 499.319C224.801 500.528 225.106 502 225.106 503.744C225.106 507.259 223.659 510.123 220.758 512.357C217.861 514.59 214.089 515.705 209.48 515.705C207.04 515.705 204.794 515.313 202.746 514.509C200.691 513.722 199.227 512.987 198.338 512.317L197.504 514.824H194.315L193.891 501.63H196.819C197.053 502.628 197.529 503.797 198.269 505.119C198.994 506.46 199.895 507.671 200.937 508.748C202.041 509.875 203.374 510.815 204.911 511.595C206.464 512.359 208.189 512.749 210.115 512.749C212.845 512.749 214.925 512.185 216.407 511.071C217.871 509.954 218.606 508.366 218.606 506.273C218.606 505.201 218.383 504.285 217.918 503.494C217.393 502.661 216.688 501.957 215.856 501.431C214.768 500.777 213.611 500.244 212.406 499.843C211.041 499.371 209.539 498.9 207.867 498.443C206.363 498.019 204.881 497.522 203.426 496.954C201.793 496.326 200.401 495.591 199.242 494.737C198.009 493.858 196.968 492.738 196.182 491.444C195.385 490.128 194.998 488.595 194.998 486.823C194.998 483.72 196.271 481.087 198.82 478.93C201.371 476.773 204.779 475.703 209.058 475.703C210.696 475.703 212.374 475.897 214.089 476.279C215.801 476.671 217.191 477.136 218.278 477.672L219.246 475.661H222.314L222.947 487.858H220.018C219.422 485.14 218.132 482.936 216.161 481.231C214.205 479.518 211.798 478.669 208.971 478.669C206.648 478.669 204.824 479.193 203.486 480.243C202.148 481.293 201.486 482.566 201.486 484.05C201.486 485.204 201.704 486.167 202.153 486.942C202.592 487.699 203.245 488.356 204.126 488.892C204.983 489.406 206.037 489.89 207.328 490.342C208.621 490.786 210.217 491.295 212.118 491.858C213.987 492.399 215.742 493.032 217.392 493.742C219.063 494.462 220.425 495.264 221.497 496.13ZM259.411 513.052C257.565 513.747 255.825 514.322 254.189 514.796C252.534 515.273 250.536 515.516 248.158 515.516C244.649 515.516 242.174 514.71 240.75 513.101C239.313 511.503 238.603 509.244 238.603 506.316V480.628H231.033V476.934H238.762V465.13H246.505V476.934H258.525V480.628H246.58V501.828C246.58 503.417 246.649 504.742 246.778 505.807C246.895 506.867 247.203 507.8 247.694 508.587C248.141 509.339 248.823 509.902 249.724 510.279C250.635 510.664 251.854 510.858 253.38 510.858C254.088 510.858 255.13 510.808 256.493 510.689C257.873 510.567 258.841 510.426 259.411 510.24V513.052ZM297.74 481.663C297.74 482.973 297.38 484.127 296.683 485.155C295.97 486.167 294.886 486.661 293.407 486.661C291.823 486.661 290.607 486.296 289.783 485.547C288.939 484.812 288.522 483.983 288.522 483.092C288.522 482.529 288.579 482.013 288.669 481.558C288.768 481.087 288.867 480.628 288.942 480.164C287.619 480.164 286.055 480.647 284.273 481.62C282.454 482.633 280.899 484.059 279.731 485.783V507.864C279.731 508.76 279.922 509.493 280.302 510.049C280.692 510.612 281.287 511.044 282.114 511.319C282.821 511.58 283.732 511.766 284.854 511.898C285.971 512.024 286.939 512.121 287.75 512.171V514.71H265.668V512.171C266.321 512.123 266.984 512.064 267.686 512.012C268.381 511.962 268.977 511.855 269.498 511.699C270.282 511.476 270.873 511.071 271.253 510.493C271.642 509.917 271.834 509.165 271.834 508.249V484.825C271.834 484.023 271.625 483.251 271.213 482.474C270.801 481.7 270.22 481.084 269.496 480.628C268.898 480.3 268.251 480.073 267.579 479.955C266.796 479.806 266.003 479.709 265.207 479.665V477.168L279.14 476.319L279.731 476.855V482.199H279.935C281.689 480.124 283.648 478.548 285.807 477.473C287.954 476.398 289.927 475.86 291.711 475.86C293.496 475.86 294.943 476.384 296.062 477.433C297.172 478.483 297.74 479.903 297.74 481.663ZM323.748 514.707H303.496V512.171C304.146 512.123 304.811 512.064 305.506 512.012C306.208 511.962 306.797 511.855 307.305 511.699C308.107 511.476 308.7 511.071 309.075 510.493C309.455 509.917 309.656 509.165 309.656 508.249V484.825C309.656 484.001 309.437 483.251 309.035 482.566C308.606 481.865 308.012 481.279 307.305 480.858C306.772 480.546 306 480.28 304.975 480.069C304.052 479.864 303.114 479.729 302.17 479.665V477.168L316.963 476.319L317.558 476.855V507.787C317.558 508.681 317.749 509.431 318.119 510.021C318.501 510.6 319.109 511.044 319.933 511.319C320.559 511.558 321.167 511.741 321.76 511.883C322.356 512.012 323.009 512.121 323.748 512.171V514.707ZM318.402 461.365C318.402 462.817 317.881 464.095 316.806 465.183C316.302 465.715 315.691 466.137 315.014 466.42C314.337 466.703 313.608 466.841 312.875 466.826C312.176 466.829 311.483 466.693 310.838 466.424C310.192 466.156 309.607 465.76 309.117 465.262C308.062 464.227 307.526 463.031 307.526 461.703C307.526 460.291 308.062 459.067 309.117 458.02C310.182 456.965 311.443 456.439 312.875 456.439C314.498 456.439 315.821 456.928 316.846 457.913C317.878 458.906 318.402 460.05 318.402 461.363M368.195 505.78C366.502 508.749 364.079 511.238 361.156 513.009C358.207 514.811 354.815 515.705 351.005 515.705C347.629 515.705 344.681 515.166 342.144 514.092C339.608 513.009 337.523 511.558 335.877 509.704C334.221 507.825 332.969 505.625 332.199 503.241C331.39 500.719 330.984 498.086 330.995 495.437C330.995 492.978 331.427 490.56 332.286 488.185C333.139 485.828 334.432 483.655 336.098 481.782C337.709 479.97 339.71 478.498 342.1 477.379C344.495 476.264 347.178 475.701 350.151 475.701C353.209 475.701 355.835 476.133 358.011 477.011C360.195 477.88 361.965 479.074 363.313 480.585C364.618 482.025 365.591 483.72 366.232 485.668C366.869 487.619 367.185 489.736 367.185 492.01V494.554H339.449C339.449 497.036 339.71 499.292 340.233 501.317C340.752 503.352 341.578 505.119 342.725 506.673C343.855 508.181 345.339 509.388 347.046 510.188C348.828 511.044 350.963 511.476 353.427 511.476C355.949 511.476 358.123 510.937 359.947 509.875C361.764 508.813 363.534 506.894 365.229 504.124L368.195 505.78ZM358.816 491.322C358.816 489.883 358.686 488.344 358.413 486.703C358.135 485.063 357.718 483.695 357.123 482.588C356.478 481.422 355.558 480.431 354.442 479.702C353.313 478.957 351.846 478.587 350.062 478.587C347.091 478.587 344.621 479.704 342.656 481.951C340.685 484.192 339.62 487.321 339.449 491.322H358.816ZM402.788 496.13C403.952 497.048 404.85 498.11 405.473 499.319C406.096 500.528 406.402 502 406.402 503.744C406.402 507.259 404.952 510.123 402.051 512.357C399.154 514.59 395.384 515.705 390.77 515.705C388.338 515.705 386.087 515.313 384.044 514.509C381.987 513.722 380.52 512.987 379.636 512.317L378.798 514.824H375.608L375.186 501.63H378.115C378.343 502.628 378.83 503.797 379.567 505.119C380.292 506.46 381.185 507.671 382.233 508.748C383.337 509.875 384.665 510.815 386.204 511.595C387.755 512.359 389.48 512.749 391.411 512.749C394.136 512.749 396.223 512.185 397.7 511.071C399.169 509.954 399.906 508.366 399.906 506.273C399.906 505.201 399.673 504.285 399.212 503.494C398.688 502.661 397.984 501.956 397.152 501.431C396.063 500.777 394.906 500.245 393.702 499.843C392.337 499.371 390.828 498.9 389.165 498.443C387.662 498.02 386.181 497.523 384.727 496.954C383.084 496.326 381.696 495.591 380.532 494.737C379.302 493.857 378.263 492.736 377.477 491.444C376.678 490.128 376.286 488.595 376.286 486.823C376.286 483.72 377.562 481.087 380.116 478.93C382.667 476.773 386.072 475.703 390.351 475.703C391.989 475.703 393.672 475.897 395.384 476.279C397.094 476.671 398.487 477.136 399.571 477.672L400.544 475.661H403.605L404.242 487.858H401.311C400.716 485.14 399.425 482.936 397.452 481.231C395.499 479.518 393.089 478.669 390.267 478.669C387.941 478.669 386.114 479.193 384.782 480.243C383.449 481.293 382.781 482.566 382.781 484.05C382.781 485.204 383 486.167 383.449 486.942C383.886 487.699 384.541 488.356 385.422 488.892C386.278 489.406 387.333 489.89 388.624 490.342C389.914 490.786 391.513 491.295 393.411 491.858C395.283 492.399 397.035 493.032 398.69 493.742C400.358 494.462 401.718 495.264 402.788 496.13ZM483.215 498.48L481.942 514.71H434.835V511.975C435.515 511.915 436.5 511.828 437.791 511.702C439.081 511.577 439.982 511.406 440.489 511.205C441.332 510.87 441.953 510.386 442.33 509.743C442.72 509.098 442.906 508.289 442.906 507.286V468.206C442.906 467.337 442.752 466.565 442.415 465.897C442.099 465.222 441.447 464.686 440.489 464.284C439.833 463.976 438.925 463.676 437.746 463.371C436.792 463.123 435.819 462.952 434.837 462.859V460.129H460.277V462.859C459.483 462.884 458.468 463.006 457.207 463.242C455.944 463.477 455.03 463.676 454.467 463.857C453.494 464.162 452.844 464.686 452.479 465.436C452.131 466.18 451.958 466.97 451.958 467.823V504.479C451.958 506.167 452.045 507.482 452.233 508.418C452.417 509.354 452.844 510.071 453.524 510.6C454.179 511.059 455.147 511.356 456.438 511.491C457.728 511.634 459.523 511.699 461.848 511.699C462.903 511.699 463.99 511.689 465.124 511.639C466.207 511.587 467.286 511.482 468.358 511.324C469.285 511.181 470.2 510.971 471.096 510.694C471.925 510.416 472.545 510.076 472.933 509.666C474.097 508.487 475.444 506.7 476.995 504.313C478.534 501.913 479.609 499.969 480.202 498.485H483.215V498.48ZM508.672 514.707H488.422V512.171C489.073 512.123 489.74 512.064 490.438 512.012C491.133 511.962 491.728 511.855 492.235 511.699C493.031 511.476 493.624 511.071 493.999 510.493C494.379 509.917 494.577 509.165 494.577 508.249V484.825C494.577 484.001 494.367 483.251 493.957 482.566C493.53 481.865 492.939 481.279 492.235 480.858C491.696 480.546 490.929 480.28 489.897 480.069C488.975 479.864 488.039 479.729 487.097 479.665V477.168L501.889 476.319L502.485 476.855V507.787C502.485 508.681 502.671 509.431 503.048 510.021C503.426 510.6 504.034 511.044 504.86 511.319C505.486 511.558 506.091 511.741 506.684 511.883C507.28 512.012 507.933 512.121 508.675 512.171L508.672 514.707ZM503.324 461.365C503.324 462.817 502.803 464.095 501.728 465.183C500.671 466.275 499.368 466.826 497.802 466.826C496.362 466.826 495.101 466.299 494.044 465.262C492.987 464.227 492.45 463.031 492.45 461.703C492.45 460.291 492.987 459.067 494.044 458.02C494.53 457.514 495.114 457.114 495.76 456.842C496.406 456.57 497.101 456.433 497.802 456.439C499.425 456.439 500.743 456.928 501.773 457.913C502.803 458.906 503.324 460.05 503.324 461.363M587.66 514.707H567.234V512.171C567.884 512.123 568.537 512.064 569.202 512.012C569.872 511.962 570.463 511.855 570.972 511.699C571.771 511.476 572.349 511.071 572.729 510.493C573.116 509.917 573.31 509.165 573.31 508.249V488.672C573.31 485.991 572.639 483.941 571.294 482.484C569.944 481.045 568.261 480.32 566.261 480.32C564.868 480.32 563.565 480.516 562.349 480.896C561.133 481.275 560.011 481.819 558.996 482.514C558.232 483.024 557.541 483.637 556.941 484.333C556.37 484.996 555.966 485.532 555.675 485.976V507.862C555.675 508.758 555.849 509.49 556.184 510.071C556.532 510.647 557.11 511.096 557.926 511.394C558.577 511.632 559.172 511.806 559.691 511.917C560.212 512.027 560.895 512.118 561.754 512.168V514.707H541.744V512.168C542.397 512.121 543.035 512.061 543.643 512.009C544.251 511.96 544.802 511.853 545.311 511.697C546.107 511.473 546.686 511.069 547.08 510.49C547.453 509.914 547.646 509.162 547.646 508.247V488.672C547.646 485.991 546.976 483.941 545.626 482.484C544.281 481.045 542.613 480.32 540.6 480.32C539.203 480.32 537.912 480.516 536.696 480.911C535.48 481.318 534.351 481.854 533.33 482.549C532.509 483.115 531.829 483.74 531.261 484.455C530.7 485.165 530.26 485.688 529.985 486.043V507.785C529.985 508.654 530.171 509.388 530.58 509.979C530.97 510.57 531.561 511.014 532.367 511.317C532.958 511.577 533.564 511.764 534.187 511.895C534.812 512.022 535.51 512.118 536.267 512.168V514.707H515.92V512.168C516.572 512.121 517.238 512.061 517.935 512.009C518.627 511.96 519.226 511.853 519.747 511.697C520.529 511.473 521.122 511.069 521.504 510.49C521.891 509.914 522.082 509.162 522.082 508.247V484.663C522.093 483.879 521.876 483.108 521.457 482.444C521.015 481.771 520.431 481.201 519.747 480.777C519.116 480.44 518.444 480.189 517.746 480.032C516.938 479.833 516.113 479.709 515.282 479.662V477.165L529.3 476.317L529.895 476.853V482.278H530.181C530.896 481.633 531.764 480.881 532.782 480.005C533.797 479.136 534.75 478.431 535.624 477.89C536.619 477.275 537.858 476.758 539.349 476.354C540.919 475.935 542.539 475.729 544.164 475.741C546.887 475.741 549.222 476.411 551.178 477.724C553.121 479.044 554.526 480.638 555.387 482.514C556.398 481.606 557.299 480.819 558.083 480.149C558.847 479.469 559.88 478.746 561.153 477.967C562.337 477.251 563.618 476.708 564.955 476.354C566.543 475.931 568.181 475.725 569.825 475.741C573.364 475.741 576.159 476.786 578.236 478.893C580.294 481.002 581.339 484.229 581.339 488.592V507.862C581.339 508.758 581.495 509.49 581.842 510.071C582.177 510.647 582.756 511.096 583.585 511.394C584.24 511.632 584.875 511.806 585.516 511.917C586.154 512.027 586.873 512.118 587.658 512.168L587.66 514.707ZM614.986 514.707H594.734V512.171C595.386 512.123 596.054 512.064 596.749 512.012C597.444 511.962 598.04 511.855 598.548 511.699C599.345 511.476 599.938 511.071 600.313 510.493C600.693 509.917 600.896 509.165 600.896 508.249V484.825C600.896 484.001 600.68 483.251 600.268 482.566C599.842 481.866 599.252 481.28 598.548 480.858C598.01 480.546 597.243 480.28 596.215 480.069C595.293 479.864 594.356 479.728 593.413 479.665V477.168L608.203 476.319L608.799 476.855V507.787C608.799 508.681 608.987 509.431 609.362 510.021C609.742 510.6 610.35 511.044 611.174 511.319C611.797 511.558 612.405 511.741 613.006 511.883C613.596 512.012 614.249 512.121 614.986 512.171V514.707ZM609.64 461.365C609.64 462.817 609.119 464.095 608.039 465.183C607.537 465.716 606.928 466.137 606.252 466.42C605.576 466.703 604.848 466.841 604.115 466.826C603.417 466.83 602.724 466.693 602.079 466.425C601.434 466.156 600.85 465.761 600.36 465.262C599.3 464.227 598.767 463.031 598.767 461.703C598.767 460.291 599.3 459.067 600.36 458.02C600.846 457.515 601.43 457.115 602.075 456.843C602.721 456.571 603.415 456.434 604.115 456.439C605.741 456.439 607.059 456.928 608.086 457.913C609.121 458.906 609.64 460.05 609.64 461.363M648.1 513.052C646.261 513.747 644.524 514.322 642.883 514.796C641.23 515.273 639.225 515.516 636.852 515.516C633.343 515.516 630.863 514.71 629.443 513.101C628.009 511.503 627.297 509.244 627.297 506.316V480.628H619.727V476.934H627.455V465.13H635.197V476.934H647.217V480.628H635.271V501.828C635.271 503.417 635.346 504.742 635.472 505.807C635.591 506.867 635.894 507.8 636.39 508.587C636.837 509.339 637.52 509.902 638.413 510.279C639.331 510.664 640.548 510.858 642.072 510.858C642.781 510.858 643.824 510.808 645.186 510.689C646.566 510.567 647.537 510.426 648.1 510.24V513.052ZM691.566 505.78C689.87 508.75 687.444 511.238 684.518 513.009C681.579 514.811 678.186 515.705 674.371 515.705C670.991 515.705 668.052 515.166 665.516 514.092C662.974 513.009 660.887 511.558 659.249 509.704C657.587 507.827 656.332 505.626 655.563 503.241C654.757 500.718 654.353 498.085 654.365 495.437C654.365 492.978 654.799 490.56 655.653 488.185C656.51 485.83 657.804 483.657 659.467 481.782C661.076 479.97 663.081 478.498 665.474 477.379C667.859 476.264 670.544 475.701 673.515 475.701C676.575 475.701 679.199 476.133 681.376 477.011C683.567 477.88 685.337 479.074 686.679 480.585C687.987 482.025 688.953 483.72 689.596 485.668C690.234 487.619 690.554 489.736 690.554 492.01V494.554H662.811C662.811 497.036 663.081 499.292 663.6 501.317C664.121 503.352 664.948 505.119 666.092 506.673C667.222 508.18 668.705 509.387 670.41 510.188C672.192 511.044 674.327 511.476 676.791 511.476C679.313 511.476 681.495 510.937 683.319 509.875C685.131 508.813 686.898 506.894 688.595 504.124L691.566 505.78ZM682.185 491.322C682.185 489.883 682.058 488.344 681.78 486.703C681.507 485.063 681.085 483.695 680.489 482.588C679.844 481.422 678.924 480.431 677.809 479.702C676.677 478.957 675.213 478.587 673.431 478.587C670.452 478.587 667.993 479.704 666.017 481.951C664.049 484.192 662.989 487.321 662.811 491.322H682.185ZM744.382 514.012L729.768 514.861L729.128 514.322V510.778L728.8 510.706C727.319 512.205 725.507 513.412 723.33 514.37C721.171 515.32 718.937 515.792 716.649 515.792C714.266 515.792 711.965 515.303 709.744 514.342C707.552 513.406 705.578 512.024 703.949 510.284C702.224 508.435 700.875 506.269 699.975 503.906C699 501.414 698.511 498.669 698.511 495.673C698.511 492.931 699.032 490.334 700.077 487.865C701.099 485.455 702.569 483.262 704.41 481.402C706.133 479.682 708.252 478.317 710.759 477.282C713.192 476.273 715.799 475.751 718.433 475.748C720.389 475.748 722.3 475.972 724.186 476.418C726.073 476.875 727.696 477.438 729.041 478.136V464.944C729.041 463.862 728.852 462.877 728.45 462.001C728.058 461.107 727.507 460.437 726.797 459.978C726.001 459.491 724.943 459.141 723.591 458.913C722.149 458.695 720.7 458.538 719.245 458.442V456.054L736.35 455.175L736.988 455.751V506.899C736.988 507.805 737.174 508.567 737.574 509.197C737.944 509.818 738.51 510.354 739.247 510.786C739.785 511.106 740.555 511.285 741.587 511.361C742.6 511.436 743.531 511.495 744.382 511.523V514.02V514.012ZM729.041 507.351V485.167C728.83 484.497 728.45 483.785 727.942 483.015C727.412 482.219 726.767 481.506 726.028 480.898C725.153 480.22 724.178 479.681 723.139 479.3C722.04 478.88 720.749 478.669 719.285 478.669C717.572 478.669 716.008 479.062 714.591 479.861C713.152 480.647 711.891 481.797 710.789 483.281C709.729 484.72 708.903 486.545 708.297 488.761C707.689 490.982 707.379 493.434 707.379 496.13C707.379 498.282 707.615 500.24 708.066 502C708.511 503.759 709.282 505.39 710.352 506.894C711.34 508.328 712.645 509.515 714.167 510.361C715.706 511.227 717.532 511.677 719.662 511.677C721.92 511.677 723.809 511.218 725.288 510.319C726.673 509.511 727.936 508.512 729.041 507.351Z" fill="white"/>
</svg>
