<svg width="750" height="750" viewBox="0 0 750 750" fill="none" xmlns="http://www.w3.org/2000/svg">
<g clip-path="url(#clip0_3_16)">
<ellipse cx="375.705" cy="375.085" rx="374.705" ry="374.085" fill="white"/>
<path d="M334.397 2.35072C331.833 3.03455 327.559 3.54743 324.994 3.63291C322.43 3.63291 318.156 4.23127 315.592 4.91511C313.027 5.59895 309.779 6.19731 308.411 6.19731C302.257 6.19731 260.03 17.3097 250.883 21.2418C249.43 21.9256 247.464 22.4385 246.524 22.4385C245.498 22.4385 244.558 22.7804 244.216 23.2078C243.959 23.6352 242.506 24.319 241.053 24.661C239.514 24.9174 237.719 25.5158 236.95 25.8577C236.266 26.1996 234.129 27.1399 232.249 27.9092C230.368 28.764 227.718 29.9607 226.436 30.6445C225.068 31.3284 223.273 31.8413 222.419 31.8413C221.649 31.8413 220.452 32.4396 219.854 33.1235C219.256 33.8073 218.145 34.4057 217.29 34.4057C216.435 34.4057 215.324 35.004 214.725 35.6879C214.127 36.3717 212.93 36.97 212.075 36.97C211.306 36.97 210.024 37.5684 209.255 38.2522C208.571 38.9361 207.46 39.5344 206.69 39.5344C206.006 39.5344 205.237 39.8764 204.895 40.3038C204.639 40.8166 202.416 42.0988 199.937 43.381C197.544 44.5778 194.894 45.86 194.21 46.3728C193.526 46.8002 189.509 49.1082 185.235 51.5871C181.046 54.066 177.456 56.374 177.285 56.8014C177.114 57.1433 176.601 57.4852 176.088 57.4852C174.977 57.4852 158.736 68.2557 155.744 70.9055C154.548 72.0168 153.351 72.8716 153.009 72.8716C152.069 72.8716 144.29 78.8552 143.948 79.7954C143.777 80.2228 143.093 80.5648 142.409 80.5648C141.726 80.5648 141.213 80.9067 141.213 81.2486C141.213 81.676 139.503 83.2146 137.452 84.6678C131.212 89.1982 127.792 92.361 110.867 109.201C92.0618 128.092 87.3604 133.135 87.3604 134.246C87.3604 134.759 87.104 135.272 86.6766 135.443C86.3346 135.528 84.5396 137.58 82.659 139.973C80.7785 142.281 78.7269 144.589 78.2141 144.931C77.6157 145.273 77.1028 145.957 77.1028 146.47C77.1028 146.897 76.6754 147.752 76.248 148.35C73.9401 151 66.8452 160.916 66.8452 161.343C66.8452 161.6 66.1614 162.625 65.3066 163.566C64.3663 164.42 63.1696 166.301 62.4858 167.583C61.8874 168.865 60.3488 171.259 59.1521 172.883C56.5877 176.473 55.22 178.696 54.0233 181.004C53.5104 181.944 52.3992 183.824 51.4589 185.278C50.5186 186.645 49.4074 188.697 48.98 189.722C48.5526 190.663 47.6978 191.774 47.2704 192.116C46.7575 192.372 46.3301 193.398 46.3301 194.338C46.3301 195.193 45.9882 195.963 45.4753 195.963C45.0479 195.963 44.4495 196.903 44.1076 198.1C43.8512 199.211 43.0819 200.578 42.398 201.177C41.7142 201.69 41.2013 202.801 41.2013 203.656C41.2013 204.511 40.6029 205.622 39.9191 206.22C39.2353 206.818 38.6369 207.844 38.6369 208.528C38.6369 209.212 38.0385 210.323 37.3547 211.007C36.6709 211.776 36.0725 213.058 36.0725 213.828C36.0725 214.683 35.4742 215.879 34.7903 216.478C34.1065 217.076 33.5081 218.444 33.5081 219.555C33.5081 220.666 33.1662 221.606 32.6533 221.606C32.2259 221.606 31.5421 222.632 31.2856 223.914C30.9437 225.282 30.1744 227.077 29.576 228.017C28.8922 228.958 28.3793 230.496 28.3793 231.522C28.3793 232.548 27.9519 233.574 27.439 233.745C26.9262 233.916 26.3278 235.027 26.2423 236.138C26.0714 237.335 25.3875 239.386 24.6182 240.839C23.8489 242.207 23.2505 243.917 23.2505 244.515C23.2505 245.113 22.9086 246.225 22.4812 247.079C19.9168 251.952 11.9672 279.904 9.14636 293.837C8.37705 297.598 7.18033 302.898 6.49649 305.548C5.81265 308.283 5.29977 311.959 5.29977 313.668C5.29977 315.463 4.87237 318.284 4.35949 319.908C3.84661 321.532 3.0773 327.089 2.73538 332.303C2.30798 337.432 1.53866 344.356 1.11126 347.689C2.26078e-05 355.041 2.26078e-05 395.387 1.11126 402.396C1.53866 405.217 2.2225 411.714 2.6499 416.928C3.0773 422.057 3.84661 427.442 4.35949 428.724C4.87237 430.092 5.29977 432.827 5.29977 434.964C5.29977 437.101 5.81265 441.204 6.49649 444.11C7.18033 447.017 8.37705 452.488 9.14636 456.249C11.7962 468.558 18.1217 491.295 20.4297 496.595C21.0281 498.048 21.5409 499.843 21.5409 500.527C21.5409 501.211 22.1393 502.921 22.8231 504.203C23.507 505.57 24.1053 507.366 24.1053 508.135C24.1053 508.99 24.5327 509.674 24.9601 509.674C25.473 509.674 25.8149 510.785 25.8149 512.152C25.8149 513.52 26.4133 515.059 27.0971 515.657C27.781 516.255 28.5503 517.965 28.8922 519.589C29.1486 521.213 29.747 522.495 30.1744 522.495C30.6018 522.495 30.9437 523.436 30.9437 524.547C30.9437 525.658 31.5421 527.026 32.2259 527.624C32.9098 528.223 33.5081 529.419 33.5081 530.274C33.5081 531.043 34.1065 532.326 34.7903 533.095C35.4742 533.779 36.0725 535.061 36.0725 536.001C36.0725 536.942 36.6709 538.138 37.3547 538.737C38.0385 539.335 38.6369 540.446 38.6369 541.301C38.6369 542.156 39.2353 543.267 39.9191 543.865C40.6029 544.464 41.2013 545.661 41.2013 546.601C41.2013 547.456 41.7997 548.396 42.4835 548.652C43.1673 548.994 43.7657 549.849 43.7657 550.704C43.7657 551.644 44.1931 552.584 44.706 552.841C45.1334 553.183 45.9882 554.294 46.4156 555.234C46.843 556.26 47.9542 558.226 48.8945 559.679C49.8348 561.047 50.946 563.013 51.3734 563.953C51.8008 564.893 53.083 567.03 54.1942 568.655C55.3055 570.279 56.5022 572.245 56.8441 572.929C58.2118 575.664 67.5291 589.939 68.5548 590.879C68.8113 591.136 70.4354 593.529 72.316 596.179C74.111 598.914 75.9061 601.137 76.3335 601.137C76.7609 601.137 77.1028 601.65 77.1028 602.163C77.1028 602.761 78.385 604.727 79.9237 606.437C81.3768 608.146 83.2574 610.369 83.9412 611.395C87.7878 616.951 130.784 660.973 132.408 660.973C132.921 660.973 133.52 661.571 133.861 662.255C134.118 662.939 134.887 663.537 135.571 663.537C136.255 663.537 136.939 663.879 137.11 664.307C137.708 665.931 173.353 691.746 175.063 691.746C175.234 691.746 177.029 692.857 178.995 694.31C180.875 695.678 183.012 696.874 183.696 696.874C184.295 696.874 184.807 697.216 184.807 697.558C184.807 697.9 186.944 699.268 189.509 700.635C192.073 701.918 194.381 703.371 194.638 703.798C194.98 704.226 195.92 704.568 196.86 704.568C197.715 704.568 198.484 704.909 198.484 705.251C198.484 705.679 200.621 706.875 203.186 708.072C205.75 709.183 207.887 710.38 207.887 710.722C207.887 711.149 208.314 711.406 208.827 711.406C209.768 711.406 220.709 716.364 225.239 718.757C226.522 719.441 227.889 719.868 228.317 719.612C228.744 719.356 229.513 719.697 230.112 720.381C230.71 721.065 231.565 721.664 232.163 721.664C233.018 721.664 238.66 723.715 245.071 726.365C253.106 729.699 285.332 739.016 293.794 740.469C296.188 740.811 299.179 741.58 300.462 742.093C301.829 742.606 304.736 743.033 306.958 743.033C309.181 743.033 311.403 743.461 311.916 743.974C312.429 744.487 316.019 745.085 319.951 745.341C323.883 745.598 327.901 746.196 328.755 746.709C330.892 747.82 358.417 749.359 375 749.273C393.72 749.188 418.338 747.82 420.475 746.624C421.501 746.025 424.749 745.598 427.741 745.598C430.733 745.512 434.665 745 436.545 744.316C438.426 743.632 441.589 743.033 443.64 743.033C445.606 743.033 448.684 742.435 450.393 741.751C452.017 741.067 454.411 740.469 455.607 740.469C456.804 740.469 459.711 739.956 462.104 739.272C464.497 738.588 471.507 736.622 477.576 734.827C491.595 730.895 503.391 727.049 506.383 725.425C507.579 724.741 509.289 724.228 510.229 724.228C511.084 724.228 512.537 723.63 513.392 722.946C514.332 722.262 515.871 721.664 516.811 721.664C517.837 721.664 519.375 721.065 520.23 720.381C521.171 719.697 522.624 719.099 523.478 719.099C524.333 719.099 525.017 718.672 525.017 718.244C525.017 717.731 525.444 717.39 525.957 717.39C527.411 717.39 550.576 706.619 551.516 705.508C551.772 705.251 553.653 704.14 555.79 703.029C557.927 701.918 560.833 700.294 562.201 699.439C563.654 698.498 565.535 697.387 566.475 696.874C567.415 696.361 569.381 695.25 570.749 694.31C572.202 693.37 574.168 692.173 575.279 691.66C576.305 691.062 577.16 690.292 577.16 689.865C577.16 689.523 577.502 689.181 578.015 689.181C578.784 689.181 583.229 686.275 594.256 678.496C603.83 671.829 608.36 668.41 609.215 667.384C609.728 666.871 611.779 665.076 613.916 663.452C620.242 658.579 622.037 656.955 639.047 639.859C659.391 619.515 662.64 616.01 662.64 614.985C662.64 614.472 662.896 613.959 663.323 613.788C663.836 613.617 665.973 610.967 671.444 604.129C671.786 603.701 674.607 599.769 677.599 595.581C680.59 591.307 684.266 586.263 685.634 584.297C687.087 582.331 688.284 580.28 688.284 579.767C688.284 579.34 688.625 578.912 689.138 578.912C689.566 578.912 690.164 577.972 690.506 576.775C690.762 575.578 691.361 574.638 691.788 574.638C692.216 574.638 692.985 573.783 693.412 572.672C693.925 571.646 695.036 569.595 695.977 568.227C696.917 566.774 698.028 564.808 698.456 563.782C698.883 562.842 699.738 561.731 700.165 561.389C700.678 561.132 701.106 560.192 701.106 559.252C701.106 558.397 701.704 557.542 702.388 557.2C703.072 556.944 703.67 556.004 703.67 555.063C703.67 554.208 704.268 553.268 704.952 552.926C705.636 552.67 706.234 551.73 706.234 550.875C706.234 549.935 706.833 548.738 707.517 548.139C708.2 547.541 708.799 546.43 708.799 545.575C708.799 544.72 709.397 543.609 710.081 543.011C710.765 542.412 711.363 541.558 711.363 541.045C711.363 540.532 712.56 537.625 714.013 534.548C716.748 528.65 717.005 528.137 719.911 521.213C720.937 518.82 722.048 516.17 722.476 515.23C724.954 509.246 732.306 487.107 735.81 475.054C736.58 472.233 737.776 468.216 738.375 466.164C739.059 464.027 739.571 461.292 739.571 460.01C739.571 458.813 740.17 456.334 740.854 454.71C741.538 453 742.136 449.923 742.136 447.786C742.136 445.735 742.734 442.914 743.418 441.632C744.102 440.178 744.7 436.93 744.7 433.938C744.7 431.118 745.128 428.382 745.641 427.869C746.153 427.356 746.923 421.971 747.35 415.902C747.778 409.919 748.461 402.824 748.889 400.259C750 394.105 749.915 354.955 748.889 348.971C748.376 346.407 747.778 339.654 747.35 334.012C747.008 328.371 746.239 322.9 745.726 321.874C745.128 320.849 744.7 317.857 744.7 315.207C744.7 312.643 744.102 309.052 743.418 307.343C742.734 305.719 742.136 302.812 742.136 300.932C742.136 299.137 741.538 296.23 740.854 294.521C740.17 292.897 739.571 290.503 739.571 289.392C739.571 288.195 738.973 285.46 738.375 283.237C737.691 281.1 736.494 277.168 735.81 274.604C730.34 255.286 721.022 229.043 716.919 221.436C716.235 220.239 715.637 218.615 715.637 217.845C715.637 217.076 715.295 216.478 714.782 216.478C714.355 216.478 713.928 215.708 713.928 214.854C713.928 213.913 713.415 212.631 712.816 212.033C712.132 211.434 711.363 209.81 711.021 208.528C710.765 207.246 710.081 206.22 709.654 206.22C709.141 206.22 708.799 205.451 708.799 204.596C708.799 203.656 708.2 202.374 707.517 201.604C706.833 200.92 706.234 199.809 706.234 199.211C706.234 198.527 705.807 197.587 705.294 197.074C704.097 195.877 702.302 192.8 701.02 189.722C700.507 188.44 699.738 187.415 699.31 187.415C698.883 187.415 698.541 186.645 698.541 185.705C698.541 184.765 698.028 183.739 697.344 183.482C696.661 183.226 695.891 182.371 695.635 181.602C695.378 180.833 694.353 178.952 693.412 177.584C692.472 176.131 691.275 174.165 690.763 173.054C690.164 172.028 689.395 171.173 688.967 171.173C688.625 171.173 688.284 170.66 688.284 170.062C688.284 169.549 685.805 165.532 682.727 161.343C679.736 157.069 676.744 152.966 676.145 152.111C675.034 150.573 673.068 147.923 671.188 145.786C670.76 145.188 670.333 144.333 670.333 143.905C670.333 143.392 669.82 142.709 669.307 142.367C668.709 142.025 666.657 139.717 664.777 137.409C662.896 135.015 661.101 132.964 660.759 132.878C660.332 132.707 660.075 132.195 660.075 131.682C660.075 131.254 658.451 129.117 656.485 126.98C648.706 118.86 625.285 95.6947 621.695 92.7029C619.729 90.9933 616.053 87.8305 613.574 85.8645C611.181 83.813 608.189 81.1631 606.907 80.0519C605.71 78.9406 604.428 78.0004 604.171 78.0004C603.915 78.0004 600.581 75.7779 596.906 73.0425C587.417 66.2041 580.408 61.5028 572.886 56.8014C569.296 54.5789 565.706 52.2709 564.765 51.6726C563.825 51.1597 562.286 50.2194 561.346 49.792C560.406 49.2791 558.525 48.1679 557.072 47.2276C555.704 46.3728 551.43 43.9794 547.669 42.0988C543.908 40.1328 540.233 38.2522 539.549 37.9103C534.334 35.0895 532.71 34.4057 531.514 34.4057C530.744 34.4057 530.146 34.0637 530.146 33.5509C530.146 33.1235 529.12 32.4396 527.838 32.1832C526.47 31.8413 525.103 31.3284 524.59 30.9865C524.162 30.6445 522.624 30.1317 521.171 29.7897C519.803 29.4478 518.35 28.764 518.093 28.3366C517.837 27.8237 516.555 27.3963 515.272 27.2253C513.99 27.1399 512.537 26.5415 512.024 26.0286C511.426 25.4303 510.486 25.0029 509.802 25.0029C509.118 25.0029 507.408 24.49 505.955 23.8062C504.416 23.1223 502.45 22.4385 501.51 22.182C500.57 21.9256 497.151 20.7289 493.817 19.6176C473.9 12.6083 441.76 5.25703 424.151 3.54743C420.133 3.20551 415.176 2.52168 413.039 2.0088C406.884 0.64112 340.21 0.897559 334.397 2.35072ZM372.778 178.097C379.189 180.149 382.864 181.858 387.053 184.936C394.148 190.15 398.08 195.706 400.729 204.425C402.354 209.81 402.268 227.59 400.644 232.975C397.054 244.772 388.078 254.174 375.855 258.79C372.179 260.158 369.273 260.414 355.34 260.414H339.098L332.688 257.337C328.243 255.286 324.823 252.892 321.746 249.644C317.301 245.113 316.446 243.917 313.54 238.275C307.984 227.676 308.411 208.443 314.48 196.817C316.959 192.03 327.73 181.431 330.038 181.431C330.807 181.431 331.918 181.004 332.346 180.576C332.858 180.063 335.166 179.123 337.474 178.525C342.86 177.071 368.504 176.73 372.778 178.097ZM249.943 211.776C260.799 213.486 270.031 218.273 276.442 225.453C281.485 231.095 282.34 232.291 284.562 236.907L286.956 241.694L287.212 325.464C287.298 383.163 287.127 411.115 286.443 415.218C284.306 429.152 281.912 439.324 280.459 440.777C280.032 441.29 279.69 442.401 279.69 443.256C279.69 444.11 279.177 445.906 278.493 447.102C277.895 448.384 275.929 452.317 274.219 455.821C270.287 463.771 270.116 464.198 264.133 472.062C253.875 485.91 236.95 498.561 221.564 504.117C204.382 510.186 196.775 511.64 176.259 512.751C143.948 514.546 108.388 504.032 90.5232 487.534C72.6579 470.951 67.7855 453 76.248 434.793C77.7867 431.545 79.3253 428.724 79.7527 428.639C80.1801 428.468 80.522 427.955 80.522 427.442C80.522 426.16 89.241 415.56 94.4552 410.346C102.832 402.225 104.2 402.054 109.243 408.978C115.141 417.013 126.938 425.219 137.794 428.81C139.93 429.493 144.803 430.519 148.735 431.118C154.889 432.058 156.941 432.058 163.266 430.861C174.464 428.724 176.943 427.613 182.243 422.484C188.825 416.073 190.62 411.799 191.646 399.49C192.073 394.019 192.586 356.323 192.928 315.634C193.441 232.462 192.928 237.933 200.023 228.872C206.605 220.41 217.888 214.17 230.967 211.776C238.574 210.323 241.395 210.323 249.943 211.776ZM562.201 276.143C565.535 276.57 569.552 277.339 571.176 277.767C572.8 278.28 576.476 279.391 579.297 280.16C609.728 288.794 638.107 312.386 651.442 339.996C653.066 343.244 654.861 347.005 655.459 348.288C656.143 349.484 656.656 351.279 656.656 352.134C656.656 352.989 656.998 354.1 657.511 354.613C657.938 355.041 658.708 357.178 659.135 359.229C659.648 361.366 660.417 364.785 660.93 366.922C663.323 376.41 663.665 379.06 664.093 389.147C664.349 395.814 664.178 402.14 663.494 405.816C662.982 409.064 662.212 413.765 661.785 416.244C661.443 418.638 660.674 421.886 660.161 423.51C655.716 437.272 654.006 441.717 650.501 448.555C642.808 463.514 627.336 480.268 610.582 491.808C604.77 495.826 589.64 503.69 587.674 503.69C587.075 503.69 585.366 504.203 583.827 504.887C580.494 506.34 573.313 508.22 564.081 510.015C555.021 511.896 530.06 511.896 521 510.015C505.186 506.853 495.954 503.775 484.842 497.792C463.899 486.679 443.213 465.651 433.468 445.564C427.912 434.109 426.715 431.203 426.715 429.237C426.715 428.297 426.288 426.673 425.69 425.647C425.177 424.621 424.407 421.8 423.98 419.492C423.638 417.099 422.954 413.509 422.527 411.372C421.074 404.961 421.416 379.402 422.954 372.051C424.578 364.016 426.544 357.092 428.083 353.416C428.767 351.878 429.28 350.254 429.28 349.826C429.28 348.459 435.007 336.748 437.315 333.329C438.512 331.534 439.537 329.824 439.537 329.568C439.537 329.311 442.444 325.464 446.034 321.105C462.617 300.59 483.047 286.571 505.357 280.331C507.921 279.562 512.11 278.365 514.674 277.681C517.153 276.912 521 276.228 523.222 276.228C525.359 276.143 528.351 275.801 529.719 275.459C532.796 274.604 553.738 275.031 562.201 276.143ZM372.008 280.844C385.514 283.921 396.541 294.264 400.729 307.856C401.67 311.104 401.926 325.721 401.926 392.994C401.926 479.756 402.012 478.131 397.652 486.594C395.515 490.782 387.395 499.672 384.061 501.553C374.829 506.511 369.016 507.451 351.493 506.853C336.363 506.34 333.371 505.485 325.678 499.672C318.241 494.031 312.771 485.568 310.548 476.08C309.864 473.259 309.608 448.641 309.608 393.421C309.608 308.283 309.522 310.249 314.309 300.675C316.703 295.803 321.233 290.589 326.277 286.913C333.628 281.442 339.868 279.904 355.34 279.904C361.922 279.818 369.444 280.331 372.008 280.844Z" fill="#FF0000"/>
<path d="M533.992 346.834C527.923 348.202 522.795 349.997 521.427 351.365C520.829 351.963 519.888 352.391 519.29 352.391C517.751 352.391 506.468 363.503 505.357 366.153C504.929 367.264 504.16 368.803 503.733 369.487C498.433 378.12 496.638 394.789 499.715 406.243C504.331 423.424 514.247 433.596 531.428 438.896C544.421 442.828 561.517 438.896 571.689 429.493C580.237 421.629 584.853 412.397 586.734 399.576C587.588 393.592 587.588 391.198 586.392 384.531C584.511 373.419 580.921 366.324 573.313 358.802C566.389 351.878 559.807 348.288 551.088 346.749C543.737 345.381 540.574 345.381 533.992 346.834Z" fill="#FF0000"/>
</g>
<defs>
<clipPath id="clip0_3_16">
<rect width="750" height="750" fill="white"/>
</clipPath>
</defs>
</svg>
